<svg width="49px" height="49px" viewBox="0 0 49 49" version="1.1" xmlns="http://www.w3.org/2000/svg" xmlns:xlink="http://www.w3.org/1999/xlink">
    <!-- Generator: Sketch 51.1 (57501) - http://www.bohemiancoding.com/sketch -->
    <title>Check - Delivered</title>
    <desc>Created with Sketch.</desc>
    <defs>
        <filter x="-6.7%" y="-6.7%" width="113.3%" height="113.3%" filterUnits="objectBoundingBox" id="filter-1">
            <feGaussianBlur stdDeviation="1" in="SourceGraphic"/>
        </filter>
    </defs>
    <g id="Desktop" stroke="none" stroke-width="1" fill="none" fill-rule="evenodd">
        <g id="Track-package-/-view-packge-details" transform="translate(-918.000000, -135.000000)">
            <g id="Check---Delivered" transform="translate(920.000000, 137.000000)">
                <circle id="Oval-2-Copy-10" fill="#33B27B" opacity="0.524852808" filter="url(#filter-1)" cx="22.5" cy="22.5" r="22.5"/>
                <circle id="Oval-Copy-4" fill="#33B27B" cx="22.5" cy="22.5" r="19.5"/>
                <path d="M29.4431189,16.2889979 L19.6459904,26.9012892 L16.5567251,23.5551817 C16.2258921,23.1959035 15.6598994,23.1691767 15.2941948,23.4929652 C14.9284901,23.8176301 14.8994305,24.3718826 15.2311576,24.7307227 L18.8291904,28.6275774 C18.9937128,28.8624227 19.2668736,29 19.556576,29 C19.5892123,29 19.6218485,28.9868557 19.6549318,28.9829124 C19.6777325,28.984665 19.699639,28.996933 19.7219926,28.996933 C19.986659,28.996933 20.2432781,28.8803866 20.417189,28.6792784 L30.7686864,17.464977 C31.1004136,17.1056987 31.071801,16.5514463 30.7056493,16.2267814 C30.3399447,15.9021165 29.774399,15.9288433 29.4431189,16.2889979 Z" id="Shape" fill="#FFFFFF" fill-rule="nonzero"/>
            </g>
        </g>
    </g>
</svg>