<svg xmlns="http://www.w3.org/2000/svg" width="39" height="39" viewBox="0 0 39 39">
    <g fill="none" fill-rule="evenodd">
        <g transform="translate(-3 -3)">
            <path d="M0 0h45v45H0z"/>
            <circle cx="22.5" cy="22.5" r="19.5" fill="#9B9B9B"/>
        </g>
        <path d="M0 0h39v39H0z"/>
        <path fill="#FFF" fill-rule="nonzero" d="M26.443 13.289l-9.797 10.612-3.09-3.346a.907.907 0 0 0-1.262-.062.864.864 0 0 0-.063 1.238l3.598 3.897a.886.886 0 0 0 .728.372c.032 0 .065-.013.098-.017.023.002.045.014.067.014a.924.924 0 0 0 .695-.318L27.77 14.465a.864.864 0 0 0-.063-1.238.905.905 0 0 0-1.263.062z"/>
    </g>
</svg>