<?xml version="1.0" encoding="iso-8859-1"?>
<!-- Generator: Adobe Illustrator 23.0.1, SVG Export Plug-In . SVG Version: 6.00 Build 0)  -->
<svg version="1.1" id="Layer_1" xmlns="http://www.w3.org/2000/svg" xmlns:xlink="http://www.w3.org/1999/xlink" x="0px" y="0px"
	 viewBox="0 0 188.419 26.169" style="enable-background:new 0 0 188.419 26.169;" xml:space="preserve">
<g>
	<path style="fill:#EE3124;" d="M128.981,19.346c-0.141,0.328-0.33,0.653-0.566,0.947c-0.945,1.174-2.406,1.927-3.635,1.927
		c-1.135,0-1.891-0.721-1.088-2.381c1.135-2.417,3.921-3.102,6.518-3.102L128.981,19.346z M132.665,6.523
		c-3.259,0-6.187,0.883-7.792,1.566l-1.84,3.983c1.793-0.817,4.201-1.633,6.656-1.633c2.547,0,2.691,1.273,2.123,2.479l-0.189,0.329
		c-5.903,0-11.522,2.219-13.834,7.146c-1.462,3.164-0.376,5.775,3.21,5.775c2.077,0,4.251-0.786,6.141-2.254h0.139l-0.565,1.858
		h5.192c0.33-1.142,1.041-2.768,1.795-4.466l3.164-6.756C138.799,10.373,138.989,6.523,132.665,6.523"/>
	<path style="fill:#EE3124;" d="M72.849,6.884l-5.382,11.615c-0.285,0.555-0.617,1.045-0.947,1.405
		c-0.708,0.815-1.933,1.726-3.304,1.726c-1.84,0-1.84-1.63-0.613-4.274l4.91-10.472h-5.807l-5.239,11.254
		c-2.599,5.519-1.42,8.031,2.502,8.031c2.878,0,5.334-1.537,6.75-2.743h0.093l-0.802,2.348h5.146
		c0.33-1.142,0.991-2.804,1.796-4.466c0.753-1.633,6.702-14.424,6.702-14.424H72.849z"/>
	<path style="fill:#EE3124;" d="M94.704,26.169c4.299,0,10.387-2.644,13.834-9.952c2.691-5.844,0.992-9.693-4.438-9.693
		c-5.334,0-11,3.524-13.975,9.918C87.292,22.546,89.37,26.169,94.704,26.169 M96.641,22.124c-2.265,0-2.125-2.58-0.612-5.811
		c1.273-2.709,3.493-5.742,6.042-5.742c2.315,0,1.748,3.033,0.472,5.742c-1.464,3.135-3.731,5.811-5.854,5.811"/>
	<path style="fill:#EE3124;" d="M156.126,26.169c4.249,0,10.39-2.644,13.788-9.952c2.688-5.844,1.037-9.693-4.441-9.693
		c-5.286,0-10.954,3.524-13.927,9.918c-2.879,6.104-0.803,9.727,4.533,9.727H156.126z M158.016,22.124
		c-2.269,0-2.078-2.58-0.615-5.811c1.275-2.709,3.543-5.742,6.043-5.742c2.36,0,1.746,3.033,0.472,5.742
		c-1.416,3.135-3.727,5.811-5.854,5.811"/>
	<path style="fill:#EE3124;" d="M188.419,6.622c-0.375-0.099-0.662-0.099-1.18-0.099c-1.746,0-4.297,1.11-6.422,3.559h-0.141
		l1.229-3.198h-4.961c-0.705,1.696-1.557,3.624-2.64,6.003l-6.043,12.887h3.114c1.746,0,3.116-0.911,3.918-2.608l3.26-6.948
		c0.281-0.622,0.611-1.173,0.896-1.566c1.367-1.891,3.35-2.838,5.098-2.838c0.615,0,0.99,0.031,1.369,0.096L188.419,6.622z"/>
	<path style="fill:#EE3124;" d="M145.881,21.598c-1.511,0-1.889-0.849-0.85-3.066l3.588-7.633h3.447l1.885-4.016h-3.49l2.359-5.024
		h-3.021c-1.746,0-3.115,0.947-3.918,2.645l-1.133,2.38h-2.502l-1.842,4.016h2.457l-3.826,8.252
		c-1.322,2.807-1.512,4.473-0.895,5.517c0.563,0.942,1.838,1.465,3.635,1.465c1.557,0,2.973-0.195,3.869-0.453l1.983-4.242
		C147.063,21.566,146.684,21.598,145.881,21.598"/>
	<path style="fill:#EE3124;" d="M120.767,1.859c-1.749,0-3.165,0.947-3.919,2.645l-9.961,21.269h3.117
		c1.744,0,3.111-0.911,3.916-2.608l9.961-21.306H120.767z"/>
	<path style="fill:#EE3124;" d="M93.809,6.622c-0.331-0.099-0.615-0.099-1.181-0.099c-1.699,0-4.295,1.11-6.373,3.559h-0.188
		l1.274-3.198h-5.004c-0.707,1.696-1.511,3.624-2.645,6.003l-5.995,12.887h3.068c1.794,0,3.164-0.911,3.967-2.608l3.21-6.948
		c0.282-0.622,0.611-1.173,0.897-1.566c1.367-1.891,3.35-2.838,5.098-2.838c0.613,0,1.04,0.031,1.416,0.096L93.809,6.622z"/>
	<path style="fill:#EE3124;" d="M46.551,12.038c-0.615,0-1.085,0-1.464-0.096l3.637-7.801c0.566-0.094,1.178-0.064,2.124-0.064
		c2.787,0,3.494,1.438,2.359,3.952C52.076,10.571,49.571,12.038,46.551,12.038 M58.92,8.057c1.511-3.719,1.511-7.93-6.704-7.93
		h-7.363L32.861,25.773h3.019c1.795,0,3.165-0.911,3.967-2.608l3.211-6.851c0.423,0.034,0.989,0.066,1.604,0.066
		c2.974,0,6.328-0.297,9.112-2.122C55.994,12.823,57.788,10.798,58.92,8.057"/>
	<path style="fill:#1C3F94;" d="M39.471,0.128h-9.82L17.703,25.773h7.035c1.795,0,3.166-0.911,3.967-2.608
		C29.507,21.468,39.471,0.128,39.471,0.128"/>
	<path style="fill:#EE3124;" d="M26.485,0.128L14.542,25.773h-4.531L20.776,2.739c0.801-1.661,2.169-2.611,3.916-2.611H26.485z"/>
	<path style="fill:#1C3F94;" d="M12.324,14.128H1.182C0.519,14.128,0,14.65,0,15.302c0,0.293,0.143,0.588,0.332,0.816l7.554,7.503
		L12.324,14.128z"/>
</g>
</svg>
